<?xml version="1.0" encoding="utf-8"?>
<!-- Generator: Adobe Illustrator 19.1.0, SVG Export Plug-In . SVG Version: 6.00 Build 0)  -->
<svg version="1.1" id="Layer_1" xmlns="http://www.w3.org/2000/svg" xmlns:xlink="http://www.w3.org/1999/xlink" x="0px" y="0px"
	 viewBox="0 0 510 510" style="enable-background:new 0 0 510 510;" xml:space="preserve">
<style type="text/css">
	.st0{fill:none;stroke:#000000;stroke-miterlimit:10;}
	.st1{fill:#FFFFFF;stroke:#000000;stroke-miterlimit:10;}
</style>
<g>
	<g>
		<path class="st0" d="M505,255.2c0-138.2-111.8-250-250-250S5,117,5,255.2s111.8,250,250,250S505,393.4,505,255.2z"/>
	</g>
	<g>
		<line class="st0" x1="255.5" y1="255" x2="255.5" y2="505"/>
		<line class="st0" x1="255" y1="255.2" x2="281.2" y2="503.9"/>
		<line class="st0" x1="255" y1="255.2" x2="307" y2="499.8"/>
		<line class="st0" x1="255" y1="255.2" x2="332.3" y2="493"/>
		<line class="st0" x1="255" y1="255.2" x2="356.7" y2="483.6"/>
		<line class="st0" x1="255" y1="255.2" x2="380" y2="471.7"/>
		<line class="st0" x1="255" y1="255.2" x2="402" y2="457.5"/>
		<line class="st0" x1="255" y1="255.2" x2="422.3" y2="441"/>
		<line class="st0" x1="255" y1="255.2" x2="440.8" y2="422.5"/>
		<line class="st0" x1="255" y1="255.2" x2="457.3" y2="402.2"/>
		<line class="st0" x1="255" y1="255.2" x2="471.5" y2="380.2"/>
		<line class="st0" x1="255" y1="255.2" x2="483.4" y2="356.9"/>
		<line class="st0" x1="255" y1="255.2" x2="492.8" y2="332.5"/>
		<line class="st0" x1="255" y1="255.2" x2="499.6" y2="307.2"/>
		<line class="st0" x1="255" y1="255.2" x2="503.7" y2="281.4"/>
		<line class="st0" x1="255" y1="255.5" x2="505" y2="255.5"/>
		<line class="st0" x1="255" y1="255.2" x2="503.7" y2="229.1"/>
		<line class="st0" x1="255" y1="255.2" x2="499.6" y2="203.3"/>
		<line class="st0" x1="255" y1="255.2" x2="492.8" y2="178"/>
		<line class="st0" x1="255" y1="255.2" x2="483.4" y2="153.5"/>
		<line class="st0" x1="255" y1="255.2" x2="471.5" y2="130.2"/>
		<line class="st0" x1="255" y1="255.2" x2="457.3" y2="108.3"/>
		<line class="st0" x1="255" y1="255.2" x2="440.8" y2="87.9"/>
		<line class="st0" x1="255" y1="255.2" x2="422.3" y2="69.4"/>
		<line class="st0" x1="255" y1="255.2" x2="402" y2="53"/>
		<line class="st0" x1="255" y1="255.2" x2="380" y2="38.7"/>
		<line class="st0" x1="255" y1="255.2" x2="356.7" y2="26.8"/>
		<line class="st0" x1="255" y1="255.2" x2="332.3" y2="17.5"/>
		<line class="st0" x1="255" y1="255.2" x2="307" y2="10.7"/>
		<line class="st0" x1="255" y1="255.2" x2="281.2" y2="6.6"/>
		<line class="st0" x1="255.5" y1="255" x2="255.5" y2="5"/>
		<line class="st0" x1="255" y1="255.2" x2="228.9" y2="6.6"/>
		<line class="st0" x1="255" y1="255.2" x2="203" y2="10.7"/>
		<line class="st0" x1="255" y1="255.2" x2="177.8" y2="17.5"/>
		<line class="st0" x1="255" y1="255.2" x2="153.3" y2="26.8"/>
		<line class="st0" x1="255" y1="255.2" x2="130" y2="38.7"/>
		<line class="st0" x1="255" y1="255.2" x2="108.1" y2="53"/>
		<line class="st0" x1="255" y1="255.2" x2="87.7" y2="69.4"/>
		<line class="st0" x1="255" y1="255.2" x2="69.2" y2="87.9"/>
		<line class="st0" x1="255" y1="255.2" x2="52.8" y2="108.3"/>
		<line class="st0" x1="255" y1="255.2" x2="38.5" y2="130.2"/>
		<line class="st0" x1="255" y1="255.2" x2="26.6" y2="153.5"/>
		<line class="st0" x1="255" y1="255.2" x2="17.3" y2="178"/>
		<line class="st0" x1="255" y1="255.2" x2="10.5" y2="203.3"/>
		<line class="st0" x1="255" y1="255.2" x2="6.4" y2="229.1"/>
		<line class="st0" x1="255" y1="255.5" x2="5" y2="255.5"/>
		<line class="st0" x1="255" y1="255.2" x2="6.4" y2="281.4"/>
		<line class="st0" x1="255" y1="255.2" x2="10.5" y2="307.2"/>
		<line class="st0" x1="255" y1="255.2" x2="17.3" y2="332.5"/>
		<line class="st0" x1="255" y1="255.2" x2="26.6" y2="356.9"/>
		<line class="st0" x1="255" y1="255.2" x2="38.5" y2="380.2"/>
		<line class="st0" x1="255" y1="255.2" x2="52.8" y2="402.2"/>
		<line class="st0" x1="255" y1="255.2" x2="69.2" y2="422.5"/>
		<line class="st0" x1="255" y1="255.2" x2="87.7" y2="441"/>
		<line class="st0" x1="255" y1="255.2" x2="108.1" y2="457.5"/>
		<line class="st0" x1="255" y1="255.2" x2="130" y2="471.7"/>
		<line class="st0" x1="255" y1="255.2" x2="153.3" y2="483.6"/>
		<line class="st0" x1="255" y1="255.2" x2="177.8" y2="493"/>
		<line class="st0" x1="255" y1="255.2" x2="203" y2="499.8"/>
		<line class="st0" x1="255" y1="255.2" x2="228.9" y2="503.9"/>
	</g>
</g>
<circle class="st1" cx="255" cy="255.2" r="150"/>
<line class="st0" id="tick" x1="255.5" y1="255" x2="255.5" y2="5"/>
</svg>
