<?xml version="1.0" encoding="utf-8"?>
<!-- Generator: Adobe Illustrator 19.1.0, SVG Export Plug-In . SVG Version: 6.00 Build 0)  -->
<svg version="1.1" id="Layer_1" xmlns="http://www.w3.org/2000/svg" xmlns:xlink="http://www.w3.org/1999/xlink" x="0px" y="0px"
	 viewBox="0 0 100 100" style="enable-background:new 0 0 100 100;" xml:space="preserve">
<style type="text/css">
	.st0{stroke:#FFFFFF;stroke-width:0.25;stroke-miterlimit:10;}
	.st1{fill:#DDDDDD;stroke:#CCCCCC;stroke-width:0.1;stroke-miterlimit:10;}
	.st2{fill:#FFFFFF;stroke:#CCCCCC;stroke-width:0.1;stroke-miterlimit:10;}
	.st3{stroke:#CCCCCC;stroke-width:0.1;stroke-miterlimit:10;}
</style>
<circle class="st0" cx="50" cy="50" r="49.5"/>
<path class="st1" d="M65.4,26.8"/>
<path class="st2" d="M68.5,39.4c3.1,0.5,6.4-0.3,8.7-2.7c2.6-2.6,3.4-6.3,2.4-9.8l0,0l-6.4,6.4c-2.4,0-7.3-4.9-7.3-7.3
	c0,0,6.7-6.7,6.7-6.7c-3.6-1.2-7.6-0.5-10.4,2.2c-2.4,2.4-3.3,5.8-2.6,9l0,0L23.3,66.8c-2,2-1.6,5.6,0.8,8l0,0c2.4,2.4,6,2.8,8,0.8
	L68.5,39.4"/>
<ellipse class="st3" cx="28.3" cy="70.9" rx="3.6" ry="3.4"/>
</svg>
